# xmcd
#
# Track frame offsets:
#	187
#	57127
#	75055
#	131097
#	208707
#	274502
#
# Disc length: 3879 seconds
#
# Revision: 1
# Processed by: cddbd v1.5.1PL0 Copyright (c) Steve Scherf et al.
# Submitted via: CDex 1.50Beta5
#
DISCID=460f2506
DTITLE=Various Artist - 星くずパラダイス
DYEAR=1900
DGENRE=Anime
TTITLE0=ドラマ1 宝生家の朝
TTITLE1=虹色れんあい
TTITLE2=ドラマ2 演歌の帝王 宝生健
TTITLE3=ドラマ3 ザ・ヒットテン発表ベスト3
TTITLE4=ドラマ4 ザ・デートパニック
TTITLE5=星くずパラダイス
EXTD=
EXTT0=
EXTT1=
EXTT2=
EXTT3=
EXTT4=
EXTT5=
PLAYORDER=
